# Blender v2.78 (sub 0) OBJ File: 'food_pack.blend'
# www.blender.org
mtllib surprise.mtl
o TurkeyLeg.001_Cylinder.001
v 0.179728 0.094244 -0.107702
v 0.285774 0.123616 -0.000333
v 0.179728 0.094244 0.107036
v 0.285846 -0.029866 0.123548
v 0.149172 -0.118310 0.107036
v 0.242561 -0.176979 -0.000333
v 0.149172 -0.118310 -0.107702
v 0.285846 -0.029866 -0.132978
v -0.297366 0.287761 -0.263230
v -0.235456 0.376099 0.000245
v -0.200993 0.273603 0.263577
v -0.214164 0.040315 0.372509
v -0.267255 -0.187110 0.263230
v -0.329166 -0.275448 -0.000246
v -0.363629 -0.172952 -0.263577
v -0.350457 0.060337 -0.372509
v -0.653953 0.104920 -0.371414
v -0.660965 -0.147047 -0.257799
v -0.606598 -0.259829 0.017013
v -0.522700 -0.167359 0.292041
v -0.458416 0.076195 0.406176
v -0.451404 0.328163 0.292561
v -0.505771 0.440944 0.017748
v -0.589669 0.348473 -0.257279
v -0.828346 0.251998 -0.035942
v -0.777110 0.294781 0.075696
v -0.740061 0.239029 0.187220
v -0.738902 0.117399 0.233302
v -0.774312 0.001140 0.186946
v -0.825549 -0.041643 0.075308
v -0.862597 0.014110 -0.036217
v -0.863756 0.135740 -0.082298
v -0.843691 0.128959 0.092400
v 0.542259 -0.084905 -0.093331
v 0.556705 -0.152174 -0.066712
v 0.481232 -0.168071 -0.002482
v 0.545886 -0.150585 0.061733
v 0.528575 -0.082895 0.088318
v 0.564231 -0.022987 0.061699
v 0.494246 0.014278 0.002371
v 0.575049 -0.024576 -0.066746
v 0.732434 -0.005305 -0.112772
v 0.677087 0.047419 -0.004719
v 0.678155 0.002668 0.119839
v 0.651641 -0.101097 0.168065
v 0.647610 -0.208165 0.119939
v 0.633890 -0.250743 -0.004578
v 0.701889 -0.216138 -0.112672
v 0.728403 -0.112373 -0.160898
v 0.824925 -0.126081 -0.137905
v 0.798411 -0.229846 -0.089679
v 0.730411 -0.264451 0.018415
v 0.744132 -0.221873 0.142932
v 0.748162 -0.114805 0.191058
v 0.774677 -0.011040 0.142832
v 0.773608 0.033712 0.018274
v 0.828956 -0.019013 -0.089779
v 0.909183 -0.067354 -0.024331
v 0.861634 -0.030884 0.040992
v 0.874846 -0.062310 0.122821
v 0.857707 -0.130976 0.153346
v 0.854791 -0.201732 0.122920
v 0.833273 -0.228057 0.041133
v 0.889129 -0.206776 -0.024231
v 0.906267 -0.138110 -0.054757
v 0.847453 -0.129470 0.041062
vt 0.6200 0.4949
vt 0.5580 0.4122
vt 0.7383 0.4255
vt 0.7225 0.4991
vt 0.5606 0.5834
vt 0.7410 0.5703
vt 0.6156 0.6738
vt 0.7019 0.6647
vt 0.5650 0.7786
vt 0.7583 0.7388
vt 0.6461 0.8566
vt 0.7498 0.8282
vt 0.5618 0.2202
vt 0.6441 0.1483
vt 0.7500 0.1602
vt 0.7557 0.2510
vt 0.6107 0.3227
vt 0.6902 0.3215
vt 0.8094 0.3699
vt 0.8251 0.4453
vt 0.8464 0.2826
vt 0.8738 0.1728
vt 0.8476 0.7083
vt 0.8741 0.8175
vt 0.8113 0.6224
vt 0.8261 0.5484
vt 0.8263 0.4971
vt 0.8622 0.4532
vt 0.8628 0.4965
vt 0.8628 0.5397
vt 0.8588 0.6053
vt 0.8981 0.6707
vt 0.9476 0.7520
vt 0.9472 0.2392
vt 0.8973 0.3208
vt 0.8577 0.3869
vt 0.9063 0.4224
vt 0.9035 0.4688
vt 0.9409 0.3843
vt 0.9870 0.3648
vt 0.9412 0.6074
vt 0.9870 0.6267
vt 0.9068 0.5697
vt 0.9038 0.5237
vt 0.9135 0.4963
vt 0.9483 0.4960
vt 0.2467 0.4227
vt 0.2495 0.3193
vt 0.2349 0.1827
vt 0.2157 0.0163
vt 0.2172 0.9813
vt 0.2362 0.8145
vt 0.2504 0.6776
vt 0.2472 0.5740
vt 0.2449 0.4983
vt 0.1854 0.4983
vt 0.1845 0.4382
vt 0.1848 0.5585
vt 0.1774 0.6399
vt 0.1527 0.7541
vt 0.0891 0.8919
vt 0.1521 0.2440
vt 0.0881 0.1073
vt 0.1769 0.3573
vt 0.1064 0.4564
vt 0.0989 0.4119
vt 0.0725 0.3603
vt 0.0138 0.3290
vt 0.0130 0.6712
vt 0.0719 0.6375
vt 0.0982 0.5846
vt 0.1058 0.5401
vt 0.0979 0.4984
vt 0.0466 0.5003
vn 0.2058 -0.0150 -0.9785
vn 0.4005 0.6258 -0.6692
vn -0.0863 0.6467 -0.7579
vn -0.0665 0.0079 -0.9977
vn 0.1931 -0.7058 -0.6816
vn -0.2897 -0.5924 -0.7517
vn 0.0634 -0.9980 -0.0081
vn -0.1642 -0.9863 -0.0157
vn 0.2376 -0.7324 0.6381
vn -0.3813 -0.6258 0.6804
vn 0.2316 -0.0197 0.9726
vn -0.1586 0.0219 0.9871
vn 0.4479 0.6358 0.6286
vn -0.1635 0.6952 0.6999
vn 0.4139 0.9103 -0.0016
vn 0.2299 0.9732 0.0077
vn -0.0837 0.9933 -0.0796
vn 0.0342 0.6931 -0.7200
vn -0.1872 0.7424 0.6432
vn -0.3952 0.0569 0.9168
vn -0.3951 -0.6608 0.6381
vn -0.3690 -0.9260 -0.0797
vn -0.1643 -0.6767 -0.7177
vn -0.0469 0.0056 -0.9989
vn 0.5031 0.6622 -0.5553
vn 0.4659 -0.0672 -0.8823
vn 0.2944 -0.7780 -0.5550
vn 0.0307 -0.9987 0.0414
vn 0.0070 -0.7357 0.6772
vn 0.0270 -0.0027 0.9996
vn 0.2159 0.7044 0.6762
vn 0.3119 0.9492 0.0403
vn 0.8051 0.5688 0.1683
vn 0.9563 0.2917 0.0188
vn 0.8705 0.3042 0.3869
vn 0.7451 -0.1076 0.6581
vn 0.7475 -0.5393 0.3878
vn 0.6089 -0.7750 0.1686
vn 0.8336 -0.5520 0.0183
vn 0.9575 -0.1388 -0.2526
vn 0.9634 -0.1384 0.2295
vn 0.2757 0.6699 -0.6894
vn 0.3495 0.9362 -0.0367
vn 0.3567 0.6745 0.6463
vn 0.2977 -0.0447 0.9536
vn 0.1516 -0.7489 0.6450
vn 0.0714 -0.9967 -0.0375
vn 0.0753 -0.7203 -0.6896
vn 0.1697 -0.0248 -0.9852
vn -0.4256 0.0623 -0.9027
vn -0.2576 0.7541 -0.6040
vn -0.4624 -0.6489 -0.6043
vn -0.3831 -0.9223 0.0511
vn -0.2779 -0.6616 0.6964
vn -0.1581 0.0222 0.9872
vn -0.0768 0.7125 0.6974
vn -0.1031 0.9933 0.0517
vn -0.8061 0.5736 -0.1454
vn -0.6544 0.7152 0.2453
vn -0.5922 0.5148 0.6199
vn -0.6275 0.0902 0.7733
vn -0.7123 -0.3283 0.6203
vn -0.8287 -0.5038 0.2437
vn -0.9349 -0.3225 -0.1482
vn -0.9377 0.1362 -0.3197
vn -0.9199 0.1260 0.3713
usemtl TurkeyBone
s 1
f 8/1/1 1/2/2 41/3/3 34/4/4
f 7/5/5 8/1/1 34/4/4 35/6/6
f 6/7/7 7/5/5 35/6/6 36/8/8
f 5/9/9 6/7/7 36/8/8 37/10/10
f 4/11/11 5/9/9 37/10/10 38/12/12
f 3/13/13 4/14/11 38/15/12 39/16/14
f 2/17/15 3/13/13 39/16/14 40/18/16
f 1/2/2 2/17/15 40/18/16 41/3/3
f 41/3/3 40/18/16 43/19/17 42/20/18
f 40/18/16 39/16/14 44/21/19 43/19/17
f 39/16/14 38/15/12 45/22/20 44/21/19
f 38/12/12 37/10/10 46/23/21 45/24/20
f 37/10/10 36/8/8 47/25/22 46/23/21
f 36/8/8 35/6/6 48/26/23 47/25/22
f 35/6/6 34/4/4 49/27/24 48/26/23
f 34/4/4 41/3/3 42/20/18 49/27/24
f 49/27/24 42/20/18 57/28/25 50/29/26
f 48/26/23 49/27/24 50/29/26 51/30/27
f 47/25/22 48/26/23 51/30/27 52/31/28
f 46/23/21 47/25/22 52/31/28 53/32/29
f 45/24/20 46/23/21 53/32/29 54/33/30
f 44/21/19 45/22/20 54/34/30 55/35/31
f 43/19/17 44/21/19 55/35/31 56/36/32
f 42/20/18 43/19/17 56/36/32 57/28/25
f 57/28/25 56/36/32 59/37/33 58/38/34
f 56/36/32 55/35/31 60/39/35 59/37/33
f 55/35/31 54/34/30 61/40/36 60/39/35
f 54/33/30 53/32/29 62/41/37 61/42/36
f 53/32/29 52/31/28 63/43/38 62/41/37
f 52/31/28 51/30/27 64/44/39 63/43/38
f 51/30/27 50/29/26 65/45/40 64/44/39
f 50/29/26 57/28/25 58/38/34 65/45/40
f 66/46/41 58/38/34 59/37/33
f 66/46/41 59/37/33 60/39/35
f 66/46/41 60/39/35 61/40/36
f 66/46/41 61/42/36 62/41/37
f 66/46/41 62/41/37 63/43/38
f 66/46/41 63/43/38 64/44/39
f 66/46/41 64/44/39 65/45/40
f 65/45/40 58/38/34 66/46/41
usemtl GoldenBrown
f 1/2/2 9/47/42 10/48/43 2/17/15
f 2/17/15 10/48/43 11/49/44 3/13/13
f 3/13/13 11/49/44 12/50/45 4/14/11
f 4/11/11 12/51/45 13/52/46 5/9/9
f 5/9/9 13/52/46 14/53/47 6/7/7
f 6/7/7 14/53/47 15/54/48 7/5/5
f 7/5/5 15/54/48 16/55/49 8/1/1
f 9/47/42 1/2/2 8/1/1 16/55/49
f 9/47/42 16/55/49 17/56/50 24/57/51
f 16/55/49 15/54/48 18/58/52 17/56/50
f 15/54/48 14/53/47 19/59/53 18/58/52
f 14/53/47 13/52/46 20/60/54 19/59/53
f 13/52/46 12/51/45 21/61/55 20/60/54
f 12/50/45 11/49/44 22/62/56 21/63/55
f 11/49/44 10/48/43 23/64/57 22/62/56
f 10/48/43 9/47/42 24/57/51 23/64/57
f 23/64/57 24/57/51 25/65/58 26/66/59
f 22/62/56 23/64/57 26/66/59 27/67/60
f 21/63/55 22/62/56 27/67/60 28/68/61
f 20/60/54 21/61/55 28/69/61 29/70/62
f 19/59/53 20/60/54 29/70/62 30/71/63
f 18/58/52 19/59/53 30/71/63 31/72/64
f 17/56/50 18/58/52 31/72/64 32/73/65
f 24/57/51 17/56/50 32/73/65 25/65/58
f 25/65/58 32/73/65 33/74/66
f 32/73/65 31/72/64 33/74/66
f 31/72/64 30/71/63 33/74/66
f 30/71/63 29/70/62 33/74/66
f 29/70/62 28/69/61 33/74/66
f 28/68/61 27/67/60 33/74/66
f 27/67/60 26/66/59 33/74/66
f 26/66/59 25/65/58 33/74/66
